<?xml version="1.0" encoding="UTF-8" standalone="no"?>
<svg
   width="456"
   height="456"
   viewBox="0 0 456 456"
   version="1.1"
   xml:space="preserve"
   style="fill-rule:evenodd;clip-rule:evenodd;stroke-linejoin:round;stroke-miterlimit:2;"
   id="svg5156"
   sodipodi:docname="appiconfg.svg"
   inkscape:version="1.2.2 (732a01da63, 2022-12-09)"
   xmlns:inkscape="http://www.inkscape.org/namespaces/inkscape"
   xmlns:sodipodi="http://sodipodi.sourceforge.net/DTD/sodipodi-0.dtd"
   xmlns="http://www.w3.org/2000/svg"
   xmlns:svg="http://www.w3.org/2000/svg"><defs
   id="defs5160" /><sodipodi:namedview
   id="namedview5158"
   pagecolor="#ffffff"
   bordercolor="#000000"
   borderopacity="0.25"
   inkscape:showpageshadow="2"
   inkscape:pageopacity="0.0"
   inkscape:pagecheckerboard="0"
   inkscape:deskcolor="#d1d1d1"
   showgrid="false"
   inkscape:zoom="1.2855077"
   inkscape:cx="23.337083"
   inkscape:cy="238.81615"
   inkscape:window-width="1920"
   inkscape:window-height="1009"
   inkscape:window-x="1917"
   inkscape:window-y="-8"
   inkscape:window-maximized="1"
   inkscape:current-layer="g6493" />
    
    
    
    
<g
   id="g6488"
   transform="matrix(0.70265042,0,0,0.70237168,91.707422,57.376599)"
   style="stroke-width:1.42346"><rect
     style="fill:none;fill-opacity:1;stroke:#808080;stroke-width:10.7601;stroke-linejoin:bevel;stroke-opacity:1"
     id="rect5902"
     width="100"
     height="100"
     x="21.452353"
     y="77.558502"
     rx="13.699636"
     ry="14.879794" /><g
     aria-label="P"
     id="text6005"
     style="font-weight:bold;font-size:126.667px;font-family:monospace;-inkscape-font-specification:'monospace Bold';stroke-width:10.7601;stroke-linejoin:bevel"><path
       d="m 61.80389,139.34076 v 13.05016 h 12.802768 q 4.576835,0 6.494158,1.79363 1.979172,1.73177 1.979172,4.57683 0,2.78321 -1.979172,4.57684 -1.917323,1.73177 -6.494158,1.73177 h -27.46101 q -4.576834,0 -6.556006,-1.73177 -1.917323,-1.79363 -1.917323,-4.63869 0,-2.78321 1.979172,-4.51498 1.979172,-1.79363 6.494157,-1.79363 h 1.979172 v -49.60299 h -1.979172 q -4.576834,0 -6.556006,-1.73178 -1.917323,-1.793623 -1.917323,-4.638682 0,-2.84506 1.917323,-4.576835 1.979172,-1.793625 6.556006,-1.793625 l 29.192786,0.06185 q 12.864617,0 20.34836,7.0508 7.545596,6.988953 7.545596,17.070353 0,5.56643 -2.53582,10.51436 -1.91732,3.71094 -6.432305,7.36004 -4.453137,3.58725 -9.15367,5.44272 -4.638684,1.79363 -12.307975,1.79363 z m 0,-12.67907 h 11.751333 q 8.287782,0 13.112014,-3.71095 4.88608,-3.7728 4.88608,-9.02997 0,-4.45314 -3.958343,-7.79299 -3.896495,-3.33985 -11.194691,-3.33985 H 61.80389 Z"
       id="path431" /></g></g><g
   id="g6493"
   transform="matrix(0.70265042,0,0,0.70237168,77.088242,57.376599)"
   style="stroke-width:1.42346"><rect
     style="clip-rule:evenodd;fill:none;fill-opacity:1;fill-rule:evenodd;stroke:#808080;stroke-width:10.7601;stroke-linejoin:bevel;stroke-miterlimit:2;stroke-opacity:1"
     id="rect5902-3"
     width="100"
     height="100"
     x="165.07358"
     y="77.558502"
     rx="13.699636"
     ry="14.879794" /><g
     aria-label="u"
     id="text6005-8"
     style="font-weight:bold;font-size:126.667px;font-family:monospace;-inkscape-font-specification:'monospace Bold';stroke-width:10.7601;stroke-linejoin:bevel"><path
       d="m 242.68921,106.86997 v 43.47994 q 4.02019,0 5.93752,1.79362 1.91732,1.79363 1.91732,4.57684 0,2.78321 -1.97917,4.57683 -1.91732,1.73178 -6.49416,1.73178 h -12.06058 v -2.90691 q -5.44272,2.47396 -10.39065,3.71095 -4.94793,1.23698 -9.40107,1.23698 -6.24676,0 -10.82359,-2.59767 -4.57684,-2.65951 -7.23635,-7.29819 -1.91732,-3.33985 -1.91732,-8.34963 v -27.27547 h -2.16472 q -4.57684,0 -6.55601,-1.73177 -1.91732,-1.79363 -1.91732,-4.63869 0,-2.78321 1.91732,-4.51498 1.97917,-1.79363 6.55601,-1.79363 h 14.84379 v 37.72797 q 0,4.02019 1.91732,5.93751 1.97917,1.85548 5.99936,1.85548 3.83465,0 8.22594,-1.48438 4.45313,-1.54623 10.94729,-5.50457 v -25.85294 h -4.57683 q -4.57684,0 -6.55601,-1.73177 -1.91732,-1.79363 -1.91732,-4.63869 0,-2.78321 1.91732,-4.51498 1.97917,-1.79363 6.55601,-1.79363 z"
       id="path425" /></g></g><g
   id="g6498"
   transform="matrix(0.70265042,0,0,0.70237168,63.601405,57.376599)"
   style="stroke-width:1.42346"><rect
     style="clip-rule:evenodd;fill:none;fill-opacity:1;fill-rule:evenodd;stroke:#808080;stroke-width:10.7601;stroke-linejoin:bevel;stroke-miterlimit:2;stroke-opacity:1"
     id="rect5902-3-6"
     width="100"
     height="100"
     x="305.88904"
     y="77.558502"
     rx="13.699636"
     ry="14.879794" /><g
     aria-label="z"
     id="text6005-8-9"
     style="font-weight:bold;font-size:126.667px;font-family:monospace;-inkscape-font-specification:'monospace Bold';stroke-width:10.7601;stroke-linejoin:bevel"><path
       d="m 349.73504,152.39092 h 22.26568 q 0.18555,-3.5254 1.91732,-5.25717 1.79363,-1.79363 4.39129,-1.79363 2.84506,0 4.57684,1.97917 1.79362,1.91733 1.79362,6.49416 v 11.25654 h -55.16942 v -10.51435 l 33.39853,-32.96558 h -19.42062 v 1.23698 q 0,4.51499 -1.79363,6.49416 -1.73177,1.91732 -4.57683,1.91732 -2.84506,0 -4.63869,-1.91732 -1.73177,-1.97917 -1.73177,-6.49416 l 0.0618,-13.91605 h 52.44805 v 10.39065 z"
       id="path420" /></g></g><g
   id="g6503"
   transform="matrix(0.70265042,0,0,0.70237168,92.126987,52.598196)"
   style="stroke-width:1.42346"><rect
     style="clip-rule:evenodd;fill:none;fill-opacity:1;fill-rule:evenodd;stroke:#808080;stroke-width:10.7601;stroke-linejoin:bevel;stroke-miterlimit:2;stroke-opacity:1"
     id="rect5902-3-6-3"
     width="100"
     height="100"
     x="21.452353"
     y="199.72737"
     rx="13.699636"
     ry="14.879794" /><g
     aria-label="z"
     id="text6005-8-9-6"
     style="font-weight:bold;font-size:126.667px;font-family:monospace;-inkscape-font-specification:'monospace Bold';stroke-width:10.7601;stroke-linejoin:bevel"><path
       d="m 65.298353,274.55979 h 22.265684 q 0.185547,-3.5254 1.917322,-5.25717 1.793625,-1.79363 4.391288,-1.79363 2.84506,0 4.576835,1.97917 1.793628,1.91733 1.793628,6.49416 v 11.25654 H 45.073691 V 276.72451 L 78.472216,243.75893 H 59.051592 v 1.23698 q 0,4.51499 -1.793625,6.49416 -1.731775,1.91732 -4.576835,1.91732 -2.845059,0 -4.638684,-1.91732 -1.731775,-1.97917 -1.731775,-6.49416 l 0.06185,-13.91605 h 52.448055 v 10.39065 z"
       id="path434" /></g></g><g
   id="g6577"
   transform="matrix(0.70265042,0,0,0.70237168,68.005486,42.62351)"
   style="stroke-width:1.42346"><rect
     style="clip-rule:evenodd;fill:none;fill-opacity:1;fill-rule:evenodd;stroke:#808080;stroke-width:10.7601;stroke-linejoin:bevel;stroke-miterlimit:2;stroke-opacity:1"
     id="rect5902-3-6-3-7"
     width="100"
     height="100"
     x="178"
     y="271.29443"
     rx="13.699636"
     ry="14.879794" /><g
     aria-label="l"
     id="text6005-8-9-6-4"
     style="font-weight:bold;font-size:126.667px;font-family:monospace;-inkscape-font-specification:'monospace Bold';stroke-width:10.7601;stroke-linejoin:bevel"><path
       d="m 235.01986,278.5876 v 67.53924 h 15.21489 q 4.57683,0 6.49415,1.79362 1.97917,1.73178 1.97917,4.57684 0,2.78321 -1.97917,4.57683 -1.91732,1.73178 -6.49415,1.73178 h -43.10884 q -4.57684,0 -6.55601,-1.73178 -1.91732,-1.79362 -1.91732,-4.63868 0,-2.78321 1.91732,-4.51499 1.97917,-1.79362 6.55601,-1.79362 h 15.21488 v -54.86017 h -10.2051 q -4.51499,0 -6.49416,-1.73178 -1.97917,-1.79362 -1.97917,-4.63868 0,-2.78321 1.91732,-4.51499 1.97917,-1.79362 6.55601,-1.79362 z"
       id="path428" /></g></g><g
   id="g6513"
   transform="matrix(0.70265042,0,0,0.70237168,64.02097,52.598196)"
   style="fill-rule:evenodd;clip-rule:evenodd;stroke-linejoin:round;stroke-miterlimit:2;stroke-width:1.42346"><rect
     style="clip-rule:evenodd;fill:none;fill-opacity:1;fill-rule:evenodd;stroke:#808080;stroke-width:10.7601;stroke-linejoin:bevel;stroke-miterlimit:2;stroke-opacity:1"
     id="rect5902-3-6-3-7-3"
     width="100"
     height="100"
     x="305.88904"
     y="199.72737"
     rx="13.699636"
     ry="14.879794" /><g
     aria-label="e"
     id="text6005-8-9-6-4-0"
     style="font-weight:bold;font-size:126.667px;font-family:monospace;-inkscape-font-specification:'monospace Bold';stroke-width:10.7601;stroke-linejoin:bevel"><path
       d="m 388.39074,265.59167 h -52.01511 q 1.97917,4.94793 6.98895,7.97854 5.07163,3.0306 13.66865,3.0306 7.0508,0 18.74029,-3.0306 4.82423,-1.23699 6.6797,-1.23699 2.53582,0 4.26759,1.79363 1.73178,1.79362 1.73178,4.51498 0,2.47397 -1.85548,4.20574 -2.47396,2.28842 -12.06058,4.39129 -9.58661,2.04102 -18.43103,2.04102 -15.21489,0 -24.36856,-8.59703 -9.09182,-8.59702 -9.09182,-21.1524 0,-13.35941 9.83401,-21.70904 9.89586,-8.41148 22.76048,-8.41148 7.73114,0 14.16345,2.72136 6.49416,2.72137 9.64846,5.87567 4.45314,4.57684 7.36005,11.31839 1.97917,4.70053 1.97917,10.88545 z M 374.35099,252.9126 q -2.90691,-5.44272 -7.60744,-8.10224 -4.70054,-2.72136 -11.1947,-2.72136 -6.4323,0 -11.13284,2.72136 -4.70053,2.65952 -7.66929,8.10224 z"
       id="path415" /></g></g><rect
   style="clip-rule:evenodd;fill:none;fill-opacity:1;fill-rule:evenodd;stroke:#808080;stroke-width:7.55907;stroke-linejoin:bevel;stroke-miterlimit:2;stroke-opacity:1"
   id="rect5902-3-6-3-7-4"
   width="70.265045"
   height="70.237175"
   x="278.95404"
   y="273.91058"
   rx="9.6260548"
   ry="10.451147" /><rect
   style="clip-rule:evenodd;fill:none;fill-opacity:1;fill-rule:evenodd;stroke:#808080;stroke-width:7.55907;stroke-linejoin:bevel;stroke-miterlimit:2;stroke-opacity:1"
   id="rect5902-3-6-3-7-4-9"
   width="70.265045"
   height="70.237175"
   x="107.20049"
   y="273.91058"
   rx="9.6260548"
   ry="10.451147" /></svg>
